<?xml version="1.0" encoding="iso-8859-1"?>
<!-- Generator: Adobe Illustrator 19.0.0, SVG Export Plug-In . SVG Version: 6.00 Build 0)  -->
<svg xmlns="http://www.w3.org/2000/svg" xmlns:xlink="http://www.w3.org/1999/xlink" version="1.1" id="Capa_1" x="0px" y="0px" viewBox="0 0 512.001 512.001" style="enable-background:new 0 0 512.001 512.001;" xml:space="preserve" width="512px" height="512px">
<g>
	<g>
		<path d="M492.377,180.94c-4.396-3.909-10.269-5.759-16.108-5.069l-11.135,1.31c-15.195,1.789-30.233-5.457-38.305-18.459    L361.368,53.286c-4-6.443-10.583-10.86-18.061-12.118l-47.396-7.978c-8.822-1.485-17.702,1.546-23.773,8.104    c-3.545,3.827-9.175,5.084-14.009,3.129l-40.321-16.31c0.009-7.84-3.668-15.471-10.129-20.265l-3.915-2.905    c-5.871-4.355-13.329-5.935-20.462-4.329l-39.141,8.808c-2.105,0.474-4.294,0.346-6.33-0.369l-10.133-3.561    c-7.823-2.748-16.571-1.585-23.404,3.113l-15.42,10.601C81.8,24.069,77.577,32.098,77.577,40.682c0,3.032-1.232,5.999-3.38,8.138    l-9.968,9.932c-2.85,2.841-2.859,7.454-0.018,10.305c2.84,2.851,7.453,2.858,10.304,0.019l9.968-9.933    c4.872-4.855,7.666-11.584,7.666-18.461c0-3.784,1.861-7.323,4.98-9.468l15.42-10.601c3.011-2.072,6.869-2.585,10.317-1.372    l7.516,2.641c-14.448,15.797-23.179,34.355-25.475,54.534c-2.486,21.852-24.249,45.633-62.938,68.773    c-3.672,2.196-7.332,4.279-10.941,6.263l1.772-5.996c1.828-6.193,2.234-12.83,1.173-19.196c-1.503-9.015,1.466-18.248,7.94-24.699    l11.29-11.25c2.85-2.841,2.859-7.454,0.018-10.305s-7.454-2.859-10.305-0.018l-11.29,11.25    c-9.808,9.773-14.304,23.762-12.028,37.418c0.701,4.202,0.433,8.583-0.774,12.671l-4.753,16.087    c-3.368,11.398-0.392,23.849,7.765,32.492l39.104,41.439c7.218,7.65,17.767,11.498,28.216,10.289l78.538-9.074    c5.772-0.67,11.62,1.126,16.029,4.923l0.967,0.832c6.055,5.214,8.586,13.263,6.606,21.005l-1.885,7.369    c-1.094,4.274-0.531,8.761,1.584,12.635l24.871,45.518c4.175,7.64,5.134,16.451,2.7,24.81l-0.906,3.112    c-6.592,22.641-5.551,47.227,2.931,69.229l21.86,56.707c7.678,19.918,27.18,33.301,48.528,33.301    c11.012,0,21.55-3.411,30.474-9.863l23.839-17.238c5.777-4.178,10.076-9.943,12.431-16.671l5.29-15.118    c12.798-6.458,20.18-20.493,18.085-34.815l-0.359-2.454l20.085-13.883c14.841-10.258,24.115-27.144,24.808-45.172    c0.26-6.752-0.659-13.437-2.73-19.871l-4.355-13.52c-2.604-8.091-1.005-16.895,4.28-23.551l24.931-31.401    c2.502-3.152,1.975-7.735-1.177-10.238c-3.15-2.501-7.734-1.975-10.237,1.176l-24.931,31.401    c-8.32,10.48-10.839,24.341-6.737,37.079l4.355,13.52c1.546,4.806,2.233,9.801,2.04,14.844    c-0.414,10.768-4.936,20.982-12.395,28.565c-18.55-41.258-19.037-105.548-4.673-145.189c8.032-22.167,33.728-37.844,58.487-48.2    c4.693,0.712,9.512,0.82,14.346,0.252l11.134-1.31c1.734-0.204,3.415,0.323,4.722,1.486c1.307,1.163,2.028,2.766,2.028,4.516    c0,1.359-0.466,2.693-1.31,3.757l-28.178,35.492c-2.502,3.152-1.975,7.735,1.177,10.238c1.34,1.064,2.938,1.58,4.526,1.58    c2.146,0,4.273-0.945,5.712-2.756l28.178-35.493c2.882-3.631,4.469-8.183,4.469-12.818    C499.293,190.464,496.772,184.849,492.377,180.94z M359.279,77.55l26.129,42.086c-4.124,2.549-8.284,5.244-12.407,7.929    c-8.474,5.518-16.478,10.73-23.315,14.073c-8.483,4.149-10.865,3.189-10.875,3.188c-0.178-0.155-0.757-1.119-1.062-3.442    C335.666,125.512,347.702,98.626,359.279,77.55z M318.804,51.822h0.002c-0.109,0.228-0.22,0.459-0.33,0.69    C318.585,52.284,318.696,52.047,318.804,51.822z M68.845,218.485l-25.644-27.174c2.732-1.231,5.508-2.401,8.25-3.419    c13.248-4.918,17.693-3.367,18.083-2.719C73.23,191.31,71.428,205.66,68.845,218.485z M97.727,225.972l-10.242,1.183    c-1.867,0.215-3.739,0.144-5.556-0.189c4.354-19.616,6.736-38.276,0.089-49.313c-7.964-13.225-27.839-7.831-49.332,2.514    l-0.251-0.266c-2.648-2.806-4.324-6.323-4.915-10.029c37.378-19.173,87.334-51.946,91.869-91.809    c2.837-24.944,16.736-42.93,30.913-55.086l36.2-8.145c2.99-0.675,6.119-0.01,8.58,1.815l3.915,2.905    c0.077,0.057,0.148,0.121,0.224,0.18c-17.198,8.452-37.618,24.056-42.198,51.448c-2.671,15.973-11.597,29.434-21.934,45.02    c-15.655,23.608-35.138,52.988-36.963,101.638C98.022,220.626,97.887,223.335,97.727,225.972z M112.418,224.276    c0.104-1.93,0.197-3.889,0.272-5.89c1.671-44.557,19.136-70.894,34.545-94.131c10.789-16.268,20.979-31.635,24.162-50.671    c3.29-19.672,17.927-31.914,31.398-39.174c0.521,2.246,2.09,4.196,4.36,5.114l16.568,6.702    c-9.028,10.463-12.062,24.372-15.025,37.99c-4.114,18.907-8.367,38.459-27.354,54.493c-24.828,20.966-35.154,54.86-39.379,82.153    L112.418,224.276z M209.535,282.858l-5.75-10.524c-0.341-0.624-0.431-1.347-0.256-2.035l1.885-7.369    c3.362-13.143-0.934-26.807-11.217-35.661l-0.967-0.832c-0.263-0.227-0.536-0.439-0.805-0.657    c6.181-28.621,12.001-33.459,13.196-34.161c0.603,0.547,2.302,2.51,4.037,8.346C215.076,218.196,214.938,254.094,209.535,282.858z     M219.987,301.984c4.395-15.068,7.276-34.11,8.069-54.481c0.45-11.557,1.01-50.371-10.674-64.61    c-4.285-5.221-10.14-7.132-16.063-5.241c-6.75,2.154-14.946,9.338-22.321,41.346c-4.197-1.089-8.596-1.422-12.976-0.916    l-8.924,1.031c4.175-24.01,13.412-52.182,33.649-69.271c22.772-19.229,27.994-43.238,32.192-62.529    c3.616-16.626,6.584-28.04,15.544-35.118l14.183,5.737c8.609,3.481,18.379,2.222,25.821-2.972    c-20.468,31.749-45.708,82.063-37.432,127.752c7.324,40.438,3.526,94.183-10.758,138.467c-0.505-1.123-1.043-2.235-1.64-3.327    L219.987,301.984z M231.654,356.836l0.184-0.634c8.033-16.321,14.63-35.451,19.405-56.677    c9.075-40.348,10.588-83.871,4.151-119.41c-8.666-47.845,25.67-104.186,45.063-131.381l13.104,2.206    c1.497,0.924,2.874,2.041,4.073,3.345c0.003-0.007,0.006-0.013,0.009-0.019c-14.721,31.197-36.202,86.402-29.188,131.093    c5.211,33.208,1.727,79.826-9.095,121.661c-10.762,41.607-27.92,75.148-49.123,96.594    C226.796,388.225,227.231,372.027,231.654,356.836z M312.914,490.328c-6.424,4.645-14.009,7.1-21.935,7.1    c-15.366,0-29.403-9.633-34.93-23.971l-0.767-1.99c2.839-5.836,6.311-12.59,10.136-19.216    c14.707-25.475,23.413-29.525,25.538-28.928c0.365,0.102,9.074,2.965,19.212,43.465c1.924,7.686,3.545,15.326,4.842,22.024    L312.914,490.328z M336.755,473.089l-8.759,6.333c-1.063-5.105-2.283-10.55-3.662-16.067    c-11.045-44.179-22.104-52.018-29.46-54.071c-12.62-3.519-25.991,7.816-42.075,35.679c-1.591,2.756-3.113,5.517-4.56,8.226    l-13.132-34.066c32.242-28.764,49.458-74.031,58.363-108.457c11.287-43.639,14.883-92.522,9.382-127.57    c-6.828-43.507,17.239-100.612,31.001-128.744l7.036,1.184c3.353,0.567,6.304,2.548,8.098,5.437l1.535,2.472    c-2.874,4.966-6.012,10.629-9.123,16.71c-13.933,27.233-20.023,48.472-18.1,63.126c1.206,9.185,5.775,13.101,9.396,14.768    c2.132,0.982,4.427,1.429,6.874,1.429c11.127,0,25.361-9.268,41.384-19.701c4.052-2.639,8.145-5.299,12.136-7.77l17.607,28.359    c-22.668,9.659-44.574,24.036-57.9,45.406c-34.808,55.82-36.298,189.279-13.625,265.261    C338.425,471.775,337.62,472.464,336.755,473.089z M380.302,234.637c-16.018,44.207-15.043,114.177,6.593,159.234l-18.163,12.554    c-2.279,1.575-3.468,4.307-3.066,7.049l1.014,6.931c1.239,8.47-3.38,16.761-11.233,20.164l-1.178,0.511    c-1.866,0.808-3.309,2.36-3.981,4.279l-1.653,4.723c-17.899-77.372-11.443-191.743,16.528-236.599    c11.942-19.151,32.555-32.052,53.912-40.718c3.945,4.662,8.627,8.575,13.799,11.636    C409.984,195.959,388.397,212.3,380.302,234.637z" fill="#FFFFFF"/>
	</g>
</g>
<g>
</g>
<g>
</g>
<g>
</g>
<g>
</g>
<g>
</g>
<g>
</g>
<g>
</g>
<g>
</g>
<g>
</g>
<g>
</g>
<g>
</g>
<g>
</g>
<g>
</g>
<g>
</g>
<g>
</g>
</svg>
